<svg width="24" height="24" viewBox="0 0 24 24" fill="none" xmlns="http://www.w3.org/2000/svg">
<path fill-rule="evenodd" clip-rule="evenodd" d="M10.056 0.964754C10.056 0.431876 9.62407 -3.05176e-05 9.0912 -3.05176e-05H2.50203C1.96929 -3.05176e-05 1.53725 0.43193 1.53725 0.964754V3.07447H0.964784C0.431961 3.07447 0 3.50651 0 4.03926V15.4604C0 16.7808 1.0188 17.855 2.30588 17.9549V18.0948C2.30588 18.6277 2.73778 19.0596 3.27066 19.0596H4.86788C5.18454 21.8362 7.54844 24 10.4086 24C13.4837 24 15.9851 21.4986 15.9851 18.4234V11.5087C15.9851 9.18536 16.8435 7.86176 18.6434 7.86176C20.4381 7.86176 21.3018 9.19162 21.3018 11.5087V22.0465C21.3018 22.5794 21.7337 23.0113 22.2666 23.0113C22.7993 23.0113 23.2314 22.5793 23.2314 22.0465V11.5087C23.2314 8.19377 21.549 5.9322 18.6434 5.9322C15.7326 5.9322 14.0555 8.18556 14.0555 11.5087V18.4234C14.0555 20.4341 12.4193 22.0704 10.4086 22.0704C8.68994 22.0704 7.22813 20.8693 6.8541 19.2421L6.81706 19.0596H8.32276C8.8555 19.0596 9.28754 18.6276 9.28754 18.0948V17.9549C10.5766 17.8549 11.5934 16.779 11.5934 15.4604V4.03926C11.5934 3.50656 11.1613 3.07447 10.6286 3.07447H10.056V0.964754ZM1.92969 5.00412H9.66397V15.4605C9.66397 15.7754 9.4089 16.033 9.09132 16.033H2.50215C2.18732 16.033 1.92969 15.7779 1.92969 15.4605V5.00412ZM5.35655 6.61954C5.65944 6.16521 6.2733 6.04243 6.72764 6.34533C7.18197 6.64822 7.30475 7.26207 7.00185 7.71641L6.0492 9.14539H7.16791C7.95758 9.14539 8.42859 10.0255 7.99056 10.6825L6.01315 13.6486C5.71026 14.103 5.0964 14.2257 4.64206 13.9229C4.18772 13.62 4.06495 13.0061 4.36785 12.5518L5.32049 11.1228H4.20179C3.41212 11.1228 2.94111 10.2427 3.37914 9.58566L5.35655 6.61954ZM3.4668 1.92966H8.12639V3.07459H3.4668V1.92966Z" fill="url(#paint0_linear)"/>
<defs>
<linearGradient id="paint0_linear" x1="29.8896" y1="24" x2="29.8896" y2="-3.03579e-05" gradientUnits="userSpaceOnUse">
<stop stop-color="#FC8507"/>
<stop offset="1" stop-color="#FFA218"/>
</linearGradient>
</defs>
</svg>
