<svg width="24" height="24" viewBox="0 0 24 24" fill="none" xmlns="http://www.w3.org/2000/svg">
<path fill-rule="evenodd" clip-rule="evenodd" d="M0 12C0 5.39289 5.3925 -3.05176e-05 12 -3.05176e-05C18.6071 -3.05176e-05 24 5.39247 24 12C24 18.607 18.6075 24 12 24C5.39292 24 0 18.6075 0 12ZM1.77783 12C1.77783 17.6366 6.36349 22.2222 12.0001 22.2222C17.6366 22.2222 22.2223 17.6366 22.2223 12C22.2223 6.36346 17.6366 1.7778 12.0001 1.7778C6.36349 1.7778 1.77783 6.36346 1.77783 12ZM4.31934 11.9999C4.31934 7.77481 7.75648 4.31931 11.9999 4.31931C16.2417 4.31931 19.6804 7.77323 19.6804 11.9999C19.6804 16.2173 16.2509 19.6804 11.9999 19.6804C7.81749 19.6804 4.3785 16.3096 4.32067 12.107C4.32023 12.0992 4.32025 12.0914 4.32028 12.0837L4.32028 12.076L4.31985 12.0455C4.31959 12.0303 4.31934 12.0151 4.31934 11.9999ZM6.09717 11.9999C6.09717 11.6664 6.12503 11.3392 6.17856 11.0204C6.2838 11.0069 6.39109 11 6.5 11C7.88071 11 9 12.1193 9 13.5C9 14.5309 8.37603 15.416 7.48516 15.7984C6.63701 14.7924 6.11769 13.4988 6.0982 12.0822C6.09786 12.0762 6.09787 12.0703 6.09789 12.0643L6.09789 12.0584L6.09756 12.035L6.09756 12.035C6.09736 12.0233 6.09717 12.0116 6.09717 11.9999ZM17.0816 8.99997H6.91838C7.94624 7.26555 9.83678 6.09714 11.9999 6.09714C14.1625 6.09714 16.0535 7.26526 17.0816 8.99997ZM17.5 11C17.6089 11 17.7161 11.0069 17.8213 11.0204C17.8749 11.3392 17.9027 11.6664 17.9027 11.9999C17.9027 13.4418 17.3811 14.769 16.5143 15.7982C15.6237 15.4157 15 14.5307 15 13.5C15 12.1193 16.1193 11 17.5 11ZM12 15C13.3624 15 14.5128 15.9082 14.8785 17.1522C14.0276 17.6298 13.0462 17.9027 11.9999 17.9027C10.9573 17.9027 9.97484 17.6301 9.12164 17.1516C9.48763 15.9079 10.6378 15 12 15ZM12 13.5C12.8284 13.5 13.5 12.8284 13.5 12C13.5 11.1715 12.8284 10.5 12 10.5C11.1716 10.5 10.5 11.1715 10.5 12C10.5 12.8284 11.1716 13.5 12 13.5Z" fill="url(#paint0_linear)"/>
<defs>
<linearGradient id="paint0_linear" x1="30.8785" y1="24" x2="30.8785" y2="-3.03579e-05" gradientUnits="userSpaceOnUse">
<stop stop-color="#FC8507"/>
<stop offset="1" stop-color="#FFA218"/>
</linearGradient>
</defs>
</svg>
