<svg width="24" height="24" viewBox="0 0 24 24" fill="none" xmlns="http://www.w3.org/2000/svg">
<path fill-rule="evenodd" clip-rule="evenodd" d="M24 2.99997C24 1.89697 23.103 0.999969 22 0.999969H3C1.897 0.999969 1 1.89697 1 2.99997V4.99997H3V2.99997H22L21.998 12H10V14H21.997V16H10V17.999L12 18V20H11C10.4872 20 10.0645 20.3827 10.0067 20.8826L10 21C10 21.5523 10.451 22 10.9908 22H15.0092C15.5173 22 15.9361 21.6172 15.9933 21.1173L16 21C16 20.4477 15.5561 20 15 20H14V18H22C23.103 18 24 17.103 24 16V2.99997ZM2 5.99997C0.89543 5.99997 0 6.8954 0 7.99997V20C0 21.1045 0.89543 22 2 22H7C8.10457 22 9 21.1045 9 20V7.99997C9 6.8954 8.10457 5.99997 7 5.99997H2ZM2 7.99997L7 7.99997V20H2V7.99997ZM3 11C3 10.4477 3.44772 9.99997 4 9.99997H5C5.55228 9.99997 6 10.4477 6 11C6 11.5523 5.55228 12 5 12H4C3.44772 12 3 11.5523 3 11ZM4 13C3.44772 13 3 13.4477 3 14C3 14.5523 3.44772 15 4 15H5C5.55228 15 6 14.5523 6 14C6 13.4477 5.55228 13 5 13H4Z" fill="url(#paint0_linear)"/>
<defs>
<linearGradient id="paint0_linear" x1="30.8785" y1="22" x2="30.8785" y2="0.99997" gradientUnits="userSpaceOnUse">
<stop stop-color="#FC8507"/>
<stop offset="1" stop-color="#FFA218"/>
</linearGradient>
</defs>
</svg>
