<svg width="24" height="24" viewBox="0 0 24 24" fill="none" xmlns="http://www.w3.org/2000/svg">
<path d="M18.3636 0H9.63636C8.76838 0 7.93595 0.344804 7.3222 0.95856C6.70844 1.57232 6.36364 2.40475 6.36364 3.27273H5.27273C4.40475 3.27273 3.57232 3.61753 2.95856 4.23129C2.3448 4.84504 2 5.67747 2 6.54545V9.81818C2 10.6862 2.3448 11.5186 2.95856 12.1324C3.57232 12.7461 4.40475 13.0909 5.27273 13.0909H11.8182C12.1075 13.0909 12.385 13.2058 12.5896 13.4104C12.7942 13.615 12.9091 13.8925 12.9091 14.1818V15.2727C12.3304 15.2727 11.7755 15.5026 11.3663 15.9118C10.9571 16.3209 10.7273 16.8759 10.7273 17.4545V21.8182C10.7273 22.3968 10.9571 22.9518 11.3663 23.361C11.7755 23.7701 12.3304 24 12.9091 24H15.0909C15.6696 24 16.2245 23.7701 16.6337 23.361C17.0429 22.9518 17.2727 22.3968 17.2727 21.8182V17.4545C17.2727 16.8759 17.0429 16.3209 16.6337 15.9118C16.2245 15.5026 15.6696 15.2727 15.0909 15.2727V14.1818C15.0909 13.3138 14.7461 12.4814 14.1324 11.8677C13.5186 11.2539 12.6862 10.9091 11.8182 10.9091H5.27273C4.9834 10.9091 4.70592 10.7942 4.50134 10.5896C4.29675 10.385 4.18182 10.1075 4.18182 9.81818V6.54545C4.18182 6.25613 4.29675 5.97865 4.50134 5.77407C4.70592 5.56948 4.9834 5.45455 5.27273 5.45455H6.36364C6.36364 6.32253 6.70844 7.15496 7.3222 7.76871C7.93595 8.38247 8.76838 8.72727 9.63636 8.72727H18.3636C19.2316 8.72727 20.064 8.38247 20.6778 7.76871C21.2916 7.15496 21.6364 6.32253 21.6364 5.45455V3.27273C21.6364 2.40475 21.2916 1.57232 20.6778 0.95856C20.064 0.344804 19.2316 0 18.3636 0V0ZM15.0909 17.4545V21.8182H12.9091V17.4545H15.0909ZM19.4545 5.45455C19.4545 5.74387 19.3396 6.02135 19.135 6.22593C18.9304 6.43052 18.653 6.54545 18.3636 6.54545H9.63636C9.34704 6.54545 9.06956 6.43052 8.86497 6.22593C8.66039 6.02135 8.54545 5.74387 8.54545 5.45455V3.27273C8.54545 2.9834 8.66039 2.70592 8.86497 2.50134C9.06956 2.29675 9.34704 2.18182 9.63636 2.18182H18.3636C18.653 2.18182 18.9304 2.29675 19.135 2.50134C19.3396 2.70592 19.4545 2.9834 19.4545 3.27273V5.45455Z" fill="url(#paint0_linear)"/>
<defs>
<linearGradient id="paint0_linear" x1="27.2642" y1="24" x2="27.2642" y2="1.5964e-07" gradientUnits="userSpaceOnUse">
<stop stop-color="#FC8507"/>
<stop offset="1" stop-color="#FFA218"/>
</linearGradient>
</defs>
</svg>
