<svg width="24" height="24" viewBox="0 0 24 24" fill="none" xmlns="http://www.w3.org/2000/svg">
<g clip-path="url(#clip0)">
<path fill-rule="evenodd" clip-rule="evenodd" d="M11.402 2.79658C11.402 2.79661 11.4021 2.79655 11.402 2.79658L2.7213 8.42831C1.80371 9.42393 2.42089 11.0785 3.85955 11.1914C4.3905 11.2331 4.8001 11.6761 4.8001 12.2087V17.9087C4.8001 19.7727 6.31162 21.2842 8.17561 21.2842H8.74704V16.673C8.74704 16.1094 9.2039 15.6526 9.76745 15.6526H14.4613C15.0249 15.6526 15.4817 16.1094 15.4817 16.673V21.2842H16.0532C17.9172 21.2842 19.4287 19.7727 19.4287 17.9087V12.2087C19.4287 11.6761 19.8383 11.2331 20.3692 11.1914C21.8079 11.0785 22.4251 9.42391 21.5075 8.42829L12.8278 2.79658M11.402 2.79658C11.402 2.79661 11.4021 2.79655 11.402 2.79658ZM10.2921 1.08402C11.4011 0.365181 12.8287 0.365181 13.9378 1.08402L22.8867 6.89039C24.9759 8.93629 23.9265 12.1897 21.4695 13.0325V17.9087C21.4695 20.8998 19.0443 23.325 16.0532 23.325H14.4613C13.8978 23.325 13.4409 22.8682 13.4409 22.3046V17.6934H10.7879V22.3046C10.7879 22.8682 10.331 23.325 9.76745 23.325H8.17561C5.18451 23.325 2.75928 20.8998 2.75928 17.9087V13.0325C0.302272 12.1897 -0.732647 8.95103 1.35657 6.90513L1.50391 6.76083L10.2921 1.08402Z" fill="url(#paint0_linear)"/>
</g>
<defs>
<linearGradient id="paint0_linear" x1="30.8169" y1="23.325" x2="30.8169" y2="0.544892" gradientUnits="userSpaceOnUse">
<stop stop-color="#FC8507"/>
<stop offset="1" stop-color="#FFA218"/>
</linearGradient>
<clipPath id="clip0">
<rect width="24" height="24" fill="white"/>
</clipPath>
</defs>
</svg>
