<svg width="24" height="24" viewBox="0 0 24 24" fill="none" xmlns="http://www.w3.org/2000/svg">
<rect opacity="0.01" y="-3.05176e-05" width="24" height="24" fill="#181818"/>
<path fill-rule="evenodd" clip-rule="evenodd" d="M4 4.00934C4 2.89999 4.89726 1.99997 6.00685 1.99997H17.9932C19.1037 1.99997 20 2.89324 20 4.00934V5.9906L20 5.99997H21.9975C23.1021 5.99997 24 6.89114 24 7.99555V17.0044C24 18.1098 23.1095 19 21.9975 19H20V20.997C20 22.1043 19.1013 23 17.9932 23H6.00685C4.89718 23 4 22.1131 4 20.997V19H2.00246C0.897895 19 0 18.1088 0 17.0044V7.99555C0 6.89009 0.8905 5.99997 2.00246 5.99997H4.00002L4 5.9906V4.00934ZM21.9975 17H20V16.0029C20 14.8868 19.1028 14 17.9932 14H6.00685C5.96724 14 5.9279 14.0011 5.88886 14.0034C4.83675 14.0641 4 14.9313 4 15.997V16.0029V17L2 17.0008L2.00246 7.99997L5.98104 7.99981L6.00685 7.99997H17.9932C18.0104 7.99997 18.0276 7.99975 18.0447 7.99932L22 7.99916L21.9975 17ZM6 20.997V18V16.0029C6 16.0018 6.00172 16 6.00658 16L6.00685 16H17.9932L17.9938 16L17.9955 16.0006C17.9974 16.0013 17.9992 16.0019 17.9998 15.9992L18 15.9992V16.0029V18V20.997C18 20.9982 17.9982 21 17.9932 21H6.00685C6.00418 21 6.00243 21.0002 6.00131 21.0004C6.00067 21.0006 6.00023 21.0007 5.99994 21.0008L5.99947 21.0009C5.99934 21.0007 6 20.9998 6 20.997ZM6.00685 5.99997H6.00364C6.00225 5.99994 6.00138 5.9998 6.00084 5.99931C5.99996 5.99849 5.99997 5.99671 5.99999 5.99282L6 5.9906V4.00934C6 4.00319 6.00321 3.99997 6.00685 3.99997H17.9932L17.9944 3.99996C17.997 3.99995 17.9984 3.99994 17.9992 4.00063C18 4.00145 18 4.00323 18 4.00712C18 4.00779 18 4.00853 18 4.00934V5.9906C18 5.99675 17.9968 5.99997 17.9932 5.99997H6.00685ZM18 11.9545C17.1214 11.9545 16.4091 11.2422 16.4091 10.3636C16.4091 9.48495 17.1214 8.77267 18 8.77267C18.8787 8.77267 19.5909 9.48495 19.5909 10.3636C19.5909 11.2422 18.8787 11.9545 18 11.9545ZM18 10.9545C18.3264 10.9545 18.5909 10.6899 18.5909 10.3636C18.5909 10.0372 18.3264 9.77267 18 9.77267C17.6737 9.77267 17.4091 10.0372 17.4091 10.3636C17.4091 10.6899 17.6737 10.9545 18 10.9545Z" fill="url(#paint0_linear)"/>
<defs>
<linearGradient id="paint0_linear" x1="30.8785" y1="23" x2="30.8785" y2="1.99997" gradientUnits="userSpaceOnUse">
<stop stop-color="#FC8507"/>
<stop offset="1" stop-color="#FFA218"/>
</linearGradient>
</defs>
</svg>
