<svg width="24" height="24" viewBox="0 0 24 24" fill="none" xmlns="http://www.w3.org/2000/svg">
<path d="M23.8045 14.886C23.507 14.5884 23.1102 14.5884 22.8127 14.7868C22.7135 14.5884 22.6143 14.3901 22.416 14.2909L22.3168 14.1917C21.92 13.7949 21.3249 13.4974 20.7298 13.4974C20.1347 13.4974 19.5396 13.6958 19.1428 14.1917L16.564 16.7705H12.299V11.2161H19.4404C19.6388 11.2161 19.8371 11.1169 20.0355 10.9186C20.2339 10.7202 20.2339 10.5218 20.2339 10.3234C20.0355 5.95928 16.564 2.3886 12.299 1.99186V1.79348C12.299 1.29756 11.9023 1 11.5055 1C11.1088 1 10.712 1.39674 10.712 1.79348V1.99186C6.34788 2.3886 2.97557 5.95928 2.7772 10.3234C2.7772 10.5218 2.87638 10.8194 2.97557 10.9186C3.17394 11.1169 3.37231 11.2161 3.57068 11.2161H10.712V16.7705H3.27313C1.98371 16.7705 0.991856 17.7624 0.991856 19.0518C0.991856 19.2502 0.991856 19.4485 1.09104 19.6469H0.793485C0.297557 19.6469 0 20.0436 0 20.4404C0 20.8371 0.396742 21.2339 0.793485 21.2339H1.09104V22.6225C1.09104 23.1184 1.48778 23.416 1.88453 23.416C2.38045 23.416 2.67801 23.0192 2.67801 22.6225V21.2339H10.5137V22.4241C10.5137 22.92 10.9104 23.2176 11.3072 23.2176C11.8031 23.2176 12.1006 22.8208 12.1006 22.4241V21.2339H17.1591V22.4241C17.1591 22.92 17.5559 23.2176 17.9526 23.2176C18.3493 23.2176 18.7461 22.8208 18.7461 22.4241V20.7379L23.507 15.977C24.1021 15.7787 24.1021 15.1835 23.8045 14.886ZM4.46335 9.52996C4.8601 7.24869 6.44707 5.1658 8.62915 4.27313C8.52996 4.37231 8.43078 4.4715 8.33159 4.66987C7.73648 5.95928 7.33974 7.64544 7.24055 9.52996H4.46335ZM14.4811 4.27313C16.6632 5.26498 18.151 7.24869 18.6469 9.52996H15.8697C15.7705 7.64544 15.3738 5.95928 14.7787 4.66987C14.5803 4.4715 14.4811 4.37231 14.4811 4.27313ZM8.92671 9.52996C9.02589 7.94299 9.32345 6.45521 9.91856 5.36417C10.4145 4.27313 11.0096 3.67801 11.5055 3.67801C12.0015 3.67801 12.6958 4.37231 13.0925 5.36417C13.5884 6.45521 13.886 7.94299 14.0844 9.52996H8.92671ZM21.2257 16.2746L17.7542 19.7461H3.27313C2.97557 19.7461 2.67801 19.4485 2.67801 19.151C2.67801 18.8534 2.97557 18.5559 3.27313 18.5559H16.9607C17.1591 18.5559 17.3575 18.4567 17.5559 18.3575L20.3331 15.4811C20.5314 15.2827 20.9282 15.2827 21.1265 15.4811L21.2257 15.5803C21.5233 15.6795 21.5233 15.977 21.2257 16.2746Z" fill="url(#paint0_linear)"/>
<defs>
<linearGradient id="paint0_linear" x1="12.0014" y1="23.5661" x2="12.0014" y2="0.9999" gradientUnits="userSpaceOnUse">
<stop stop-color="#FC8507"/>
<stop offset="1" stop-color="#FFA218"/>
</linearGradient>
</defs>
</svg>
