<svg width="24" height="24" viewBox="0 0 24 24" fill="none" xmlns="http://www.w3.org/2000/svg">
<rect opacity="0.01" width="24" height="24" fill="#181818"/>
<path fill-rule="evenodd" clip-rule="evenodd" d="M7.00276 0C5.34339 0 4 1.33705 4 2.99115V21.0088C4 22.6635 5.34571 24 7.0037 24H16.0024H16.0031C17.6625 23.9996 19 22.6533 19 20.9926V3.00333C19 1.34402 17.6559 0 15.9972 0H7.00276ZM16.0024 22.0512C16.0024 22.0229 16.0254 22.0001 16.0536 21.9987C16.5819 21.972 17 21.5344 17 20.9926V3.00333C17 2.4486 16.5514 2 15.9972 2H7.00276C6.44585 2 6 2.44374 6 2.99116V21.0088C6 21.5559 6.44721 22 7.0037 22H16.0016C16.002 22 16.0022 22 16.0024 22.0512ZM9.5 17.5C9.5 18.6046 10.3954 19.5 11.5 19.5C12.6046 19.5 13.5 18.6046 13.5 17.5C13.5 16.3954 12.6046 15.5 11.5 15.5C10.3954 15.5 9.5 16.3954 9.5 17.5ZM12.5 17.5C12.5 18.0523 12.0523 18.5 11.5 18.5C10.9477 18.5 10.5 18.0523 10.5 17.5C10.5 16.9477 10.9477 16.5 11.5 16.5C12.0523 16.5 12.5 16.9477 12.5 17.5ZM8.97168 4.27271C8.97168 4.54885 9.19554 4.77271 9.47168 4.77271H13.4715C13.7476 4.77271 13.9715 4.54885 13.9715 4.27271C13.9715 3.99656 13.7476 3.77271 13.4715 3.77271H9.47168C9.19554 3.77271 8.97168 3.99656 8.97168 4.27271Z" fill="url(#paint0_linear)"/>
<defs>
<linearGradient id="paint0_linear" x1="15.4044" y1="4.77271" x2="15.4044" y2="3.77271" gradientUnits="userSpaceOnUse">
<stop stop-color="#FC8507"/>
<stop offset="1" stop-color="#FFA218"/>
</linearGradient>
</defs>
</svg>
