<svg width="24" height="24" viewBox="0 0 24 24" fill="none" xmlns="http://www.w3.org/2000/svg">
<path fill-rule="evenodd" clip-rule="evenodd" d="M0.162166 1.00023C0.0726202 1.00023 3.03683e-05 1.07282 3.4183e-05 1.16237L0.000486225 9.64176C0.000514835 10.1741 0.430607 10.6064 0.962923 10.6091L0.965452 22.0811C0.965574 22.633 1.41276 23.0805 1.96464 23.0809L7.68492 23.0855C8.74165 23.0825 9.59714 22.2259 9.5987 21.1691L9.60155 19.2401C9.60311 18.1798 8.74541 17.3187 7.68513 17.3161L7.67992 15.3994L8.63062 15.4021C9.16498 15.4036 9.59986 14.9726 9.60304 14.4382L10.4834 14.436C11.583 14.4333 12.4741 13.5434 12.4784 12.4438L12.4855 10.6059H14.3982C15.4606 10.6059 16.3225 9.74594 16.325 8.68358L18.2448 8.68107C19.3036 8.67969 20.1614 7.82129 20.1621 6.76245L23.0387 6.76176C23.5674 6.76163 23.9961 6.33312 23.9964 5.80438C23.9967 5.27532 23.568 4.8462 23.0389 4.84593L20.165 4.8445C20.1641 3.78352 19.3032 2.92418 18.2422 2.92517L16.3271 2.92696C16.3235 1.8618 15.459 1.00023 14.3939 1.00023H0.162166ZM9.60048 12.5202H8.64049V10.6002H10.5605V11.5602C10.5605 12.0895 10.1298 12.5202 9.60048 12.5202ZM14.4004 3.92015C14.4004 3.36787 13.9527 2.92015 13.4004 2.92015H2.92051C2.36823 2.92015 1.92051 3.36787 1.92051 3.92015V7.68012C1.92051 8.2324 2.36823 8.68012 2.92051 8.68012H13.4004C13.9527 8.68012 14.4004 8.2324 14.4004 7.68012V3.92015ZM18.2404 5.80031C18.2404 5.27012 17.8106 4.84032 17.2804 4.84032H16.3204V6.76031H17.2804C17.8106 6.76031 18.2404 6.3305 18.2404 5.80031ZM3.88055 21.1554C3.32914 21.1542 2.88271 20.707 2.88259 20.1556L2.88055 10.5991L6.7328 10.6023L6.72965 14.4429L5.76098 14.4412L5.76409 19.2434L7.68453 19.2437L7.68653 20.1589C7.68774 20.7128 7.23842 21.1622 6.68449 21.1611L3.88055 21.1554Z" fill="url(#paint0_linear)"/>
<defs>
<linearGradient id="paint0_linear" x1="-6.87742" y1="23.0855" x2="-6.87742" y2="1.00023" gradientUnits="userSpaceOnUse">
<stop stop-color="#FC8507"/>
<stop offset="1" stop-color="#FFA218"/>
</linearGradient>
</defs>
</svg>
