<svg width="24" height="24" viewBox="0 0 24 24" fill="none" xmlns="http://www.w3.org/2000/svg">
<path fill-rule="evenodd" clip-rule="evenodd" d="M13.9157 5.91564C13.391 2.56068 10.4945 0 7 0C3.13401 0 0 3.13401 0 7C0 10.866 3.13401 14 7 14C8.59414 14 10.0638 13.4671 11.2406 12.5698L11.0912 12.2411L11.0421 12.1372C10.7128 11.4433 10.0321 10.0642 9 8L11.1822 7.11925L11.4204 7.02177C13.05 6.35369 13.8817 5.98498 13.9157 5.91564ZM22.9995 10.9993L22.9998 18C22.9998 19.1045 22.1044 20 20.9998 20L15.9998 19.999V22H17.9998C18.5521 22 18.9998 22.4477 18.9998 23C18.9998 23.5523 18.5521 24 17.9998 24H6.99984C6.44756 24 5.99984 23.5523 5.99984 23C5.99984 22.4477 6.44756 22 6.99984 22H8.99984V19.999L3.99984 20C2.89527 20 1.99984 19.1045 1.99984 18L1.99854 13.2443C2.65541 13.7711 3.39718 14.1964 4.20007 14.4964L4.19984 17.8H20.7998L20.7995 10.9993H22.9995ZM14 19.999H11V22H14V19.999ZM6.9998 1.80005C4.12792 1.80005 1.7998 4.12817 1.7998 7.00005C1.7998 9.87193 4.12792 12.2 6.9998 12.2C7.66138 12.2 8.30268 12.0769 8.8987 11.8431L8.84788 11.7397L8.79535 11.6329L6.51498 7.05532L8.69693 6.18236L10.8549 5.30816L11.7715 4.92756C10.9664 3.07455 9.11723 1.80005 6.9998 1.80005ZM16 9C16 8.44771 15.5523 8 15 8C14.4477 8 14 8.44771 14 9C14 9.55229 14.4477 10 15 10C15.5523 10 16 9.55229 16 9ZM19 8C19.5523 8 20 8.44771 20 9C20 9.55229 19.5523 10 19 10C18.4477 10 18 9.55229 18 9C18 8.44771 18.4477 8 19 8ZM24 9C24 8.44771 23.5523 8 23 8C22.4477 8 22 8.44771 22 9C22 9.55229 22.4477 10 23 10C23.5523 10 24 9.55229 24 9ZM15.418 3.99829L21.0002 3.99999C22.1047 3.99999 23.0002 4.89542 23.0002 5.99999L22.9999 6.99929H20.7999L20.8002 6.19999L15.9607 6.20002C15.8841 5.42862 15.6979 4.68944 15.418 3.99829ZM8.2 4.5C8.2 3.67157 7.48366 3 6.6 3C5.71634 3 5 3.67157 5 4.5C5 5.32843 5.71634 6 6.6 6C7.48366 6 8.2 5.32843 8.2 4.5Z" fill="url(#paint0_linear)"/>
<defs>
<linearGradient id="paint0_linear" x1="30.8785" y1="24" x2="30.8785" y2="1.5964e-07" gradientUnits="userSpaceOnUse">
<stop stop-color="#FC8507"/>
<stop offset="1" stop-color="#FFA218"/>
</linearGradient>
</defs>
</svg>
